<svg width="1525" height="1405" viewBox="0 0 1525 1405" fill="none" xmlns="http://www.w3.org/2000/svg">
<mask id="mask0_136_559" style="mask-type:alpha" maskUnits="userSpaceOnUse" x="0" y="0" width="1525" height="1144">
<rect width="1525" height="1144" rx="12" fill="#141418"/>
</mask>
<g mask="url(#mask0_136_559)">
<path d="M715.934 384.157L719.778 373.296C721.712 367.831 721.838 361.9 720.137 356.393C718.436 350.887 715 346.104 710.345 342.764L704.353 338.477L711.357 340.771C716.798 342.559 722.687 342.512 728.135 340.636C733.583 338.759 738.296 335.156 741.563 330.369L748.065 320.843L744.216 331.715C742.281 337.18 742.156 343.113 743.86 348.62C745.565 354.126 749.006 358.907 753.665 362.242L759.641 366.535L752.654 364.235C747.209 362.447 741.318 362.495 735.867 364.372C730.416 366.25 725.701 369.854 722.431 374.642L715.934 384.157Z" fill="#131316"/>
<path d="M608.452 766.053L605.532 762.062C599.802 754.214 592.492 747.693 584.101 742.941C575.709 738.189 566.433 735.319 556.901 734.525V734.525C564.199 728.363 570.089 720.66 574.171 711.938C578.252 703.217 580.43 693.68 580.556 683.978L580.618 679.033L583.539 683.024C589.272 690.852 596.58 697.354 604.965 702.088C613.351 706.822 622.618 709.677 632.137 710.459V710.459C624.84 716.628 618.952 724.338 614.873 733.065C610.793 741.793 608.617 751.333 608.493 761.04L608.452 766.053Z" fill="#131316"/>
<path d="M1171.85 584.392L1137.87 579.849C1120.77 577.563 1103.43 580.806 1088.46 589.089C1073.48 597.372 1061.68 610.248 1054.84 625.778L1046.06 645.765L1048.41 624.057C1050.26 607.187 1046.49 590.137 1037.67 575.476C1028.84 560.815 1015.45 549.338 999.503 542.774L967.77 529.709L1001.78 534.261C1018.88 536.55 1036.22 533.303 1051.2 525.011C1066.17 516.719 1077.96 503.83 1084.79 488.29L1093.6 468.346L1091.21 490.011C1089.37 506.889 1093.15 523.946 1101.97 538.613C1110.8 553.281 1124.2 564.765 1140.15 571.336L1171.85 584.392Z" fill="#131316"/>
<path d="M922.655 421.799L917.719 422.097C908.018 422.673 898.58 425.295 890.045 429.783C881.51 434.272 874.079 440.523 868.256 448.111V448.111C867.02 438.64 863.726 429.52 858.597 421.37C853.468 413.22 846.624 406.232 838.53 400.879L834.405 398.152L839.341 397.854C849.027 397.264 858.448 394.634 866.965 390.14C875.482 385.647 882.895 379.396 888.701 371.812V371.812C889.944 381.286 893.245 390.408 898.379 398.559C903.514 406.71 910.363 413.7 918.461 419.054L922.655 421.799Z" fill="#131316"/>
<g clip-path="url(#clip0_136_559)">
<path d="M819.067 232.254L792.515 186.265L828.108 165.716L837.323 151.416L853.457 161.903L865.526 205.431L851.373 238.104L828.126 227.023L819.067 232.254Z" fill="#131316"/>
<path d="M878.479 215.561L883.007 212.102C885.284 210.362 886.941 207.944 887.729 205.213C888.516 202.481 888.39 199.583 887.371 196.955L886.056 193.577L888.328 196.403C890.093 198.6 892.538 200.159 895.297 200.844C898.056 201.528 900.978 201.302 903.623 200.199L908.887 198.005L904.355 201.467C902.077 203.207 900.42 205.625 899.634 208.358C898.848 211.09 898.976 213.989 899.998 216.616L901.306 219.992L899.041 217.168C897.275 214.97 894.828 213.411 892.068 212.726C889.308 212.041 886.385 212.267 883.738 213.37L878.479 215.561Z" fill="#131316"/>
<path d="M703.057 199.509L707.584 196.051C709.864 194.311 711.522 191.892 712.309 189.159C713.096 186.426 712.968 183.526 711.946 180.899L710.633 177.526L712.903 180.346C714.669 182.547 717.12 184.108 719.883 184.791C722.647 185.475 725.574 185.245 728.221 184.136L733.48 181.944L728.953 185.403C726.674 187.142 725.015 189.56 724.228 192.292C723.441 195.024 723.567 197.923 724.588 200.55L725.899 203.931L723.631 201.103C721.866 198.905 719.419 197.346 716.659 196.662C713.9 195.977 710.977 196.205 708.331 197.309L703.057 199.509Z" fill="#131316"/>
<path d="M876.495 183.117L877.04 182.501C878.112 181.291 878.912 179.87 879.386 178.335C879.86 176.8 879.997 175.187 879.786 173.606V173.606C881.048 174.579 882.51 175.268 884.074 175.626C885.637 175.985 887.266 176.004 888.848 175.684L889.654 175.52L889.109 176.136C888.04 177.346 887.243 178.766 886.772 180.299C886.301 181.833 886.166 183.443 886.378 185.022V185.022C885.115 184.05 883.652 183.362 882.087 183.004C880.523 182.646 878.894 182.627 877.311 182.948L876.495 183.117Z" fill="#131316"/>
<path d="M825.34 262.811C807.515 254.031 789.7 242.228 776.472 232.141C766.295 224.362 756.586 216.003 747.393 207.106C740.937 200.842 729.927 206.629 731.592 215.471C734.694 231.964 743.782 246.676 757.15 256.843C758.81 258.11 760.515 259.279 762.25 260.369L753.054 272.123C788.767 284.524 816.136 271.988 825.422 266.653C825.767 266.453 826.052 266.165 826.248 265.819C826.444 265.474 826.543 265.084 826.534 264.691C826.526 264.297 826.41 263.915 826.2 263.584C825.99 263.254 825.693 262.986 825.34 262.811Z" fill="#131316"/>
<path d="M881.73 258.425C887.26 251.349 881.357 236.739 867.588 219.475C872.06 203.693 870.792 186.938 864.009 172.161C857.225 157.385 845.361 145.535 830.507 138.7C829.575 145.631 823.94 142.795 818.576 147.396C813.212 151.997 809.038 156.195 802 156.1C794.962 156.005 790.592 157.242 785.5 152.5C785.5 143.796 774.415 144.886 773.886 137.935C771.123 139.091 768.435 140.42 765.836 141.912C745.435 133.124 729.616 131.186 724.088 138.253C714.103 151.019 741.295 188.269 784.821 221.46C828.347 254.651 871.742 271.185 881.73 258.425ZM741.707 159.705C736.358 152.011 734.33 146.147 736.597 143.242C739.147 139.987 746.707 140.953 757.372 145.23C757.578 145.312 757.758 145.446 757.894 145.619C758.031 145.793 758.118 145.999 758.149 146.218C758.179 146.437 758.152 146.66 758.068 146.867C757.985 147.073 757.849 147.256 757.674 147.396C753.055 150.989 748.898 155.133 745.298 159.731C745.087 160.012 744.812 160.24 744.496 160.396C744.181 160.553 743.833 160.633 743.482 160.63C743.132 160.628 742.788 160.543 742.479 160.382C742.17 160.221 741.906 159.989 741.707 159.705ZM822.951 198.768C821.323 196.741 819.067 195.304 816.522 194.672C813.978 194.041 811.282 194.249 808.842 195.266L803.989 197.296L808.166 194.107C810.267 192.502 811.795 190.272 812.52 187.752C813.245 185.233 813.129 182.56 812.187 180.137L810.975 177.021L813.073 179.626C814.699 181.654 816.953 183.092 819.497 183.725C822.041 184.357 824.736 184.149 827.176 183.132L832.027 181.109L827.85 184.298C825.749 185.902 824.221 188.132 823.497 190.652C822.773 193.171 822.891 195.843 823.834 198.265L825.038 201.379L822.951 198.768ZM818.84 224.545L818.026 224.706L818.576 224.087C819.645 222.877 820.442 221.457 820.913 219.924C821.385 218.391 821.519 216.78 821.307 215.201C822.568 216.176 824.03 216.866 825.594 217.225C827.158 217.584 828.787 217.602 830.369 217.278L831.175 217.115L830.633 217.736C829.562 218.944 828.763 220.364 828.292 221.898C827.82 223.432 827.687 225.043 827.902 226.622C826.64 225.647 825.177 224.956 823.612 224.598C822.047 224.24 820.418 224.223 818.835 224.547L818.84 224.545ZM842.465 157.426C852.614 167.504 858.647 180.964 859.431 195.278C860.216 209.593 855.698 223.779 846.727 235.174C854.98 209.472 853.463 181.802 842.465 157.426ZM855.738 247.52C855.422 247.398 855.14 247.204 854.915 246.953C854.691 246.702 854.529 246.401 854.444 246.075C854.36 245.748 854.354 245.406 854.427 245.074C854.501 244.743 854.651 244.432 854.867 244.167C855.008 243.985 855.154 243.801 855.297 243.624C859.017 238.869 862.108 233.667 864.495 228.148C864.582 227.941 864.722 227.76 864.901 227.623C865.08 227.485 865.291 227.396 865.514 227.364C865.736 227.331 865.963 227.357 866.171 227.438C866.378 227.52 866.56 227.654 866.698 227.827C874.641 237.861 878.096 245.583 875.371 249.067C872.918 252.206 865.8 251.414 855.743 247.517L855.738 247.52Z" fill="#131316"/>
<path d="M816.317 159.5C820.103 157.317 823.346 154.309 825.798 150.708C828.249 147.107 829.843 143.01 830.456 138.73C821.661 134.702 812.087 132.55 802.346 132.414C792.605 132.277 782.912 134.157 773.886 137.935C774.282 142.651 775.87 147.175 778.506 151.088C781.141 155.002 784.739 158.179 788.966 160.328C793.194 162.476 797.915 163.527 802.695 163.382C807.475 163.238 812.16 161.903 816.317 159.5V159.5Z" fill="#131316"/>
</g>
</g>
<g clip-path="url(#clip1_136_559)">
<path d="M502.868 480.871L401.52 539.384L356.233 460.945L324.72 440.638L347.831 405.081L443.756 378.485L515.762 409.674L491.341 460.906L502.868 480.871Z" fill="#131316"/>
<path d="M466.082 349.939L458.46 339.962C454.625 334.942 449.297 331.29 443.276 329.556C437.256 327.821 430.87 328.097 425.079 330.343L417.635 333.242L423.861 328.234C428.704 324.346 432.139 318.956 433.648 312.876C435.157 306.797 434.659 300.357 432.228 294.527L427.392 282.926L435.021 292.915C438.856 297.936 444.186 301.587 450.208 303.319C456.23 305.051 462.617 304.769 468.406 302.516L475.846 299.634L469.624 304.625C464.78 308.516 461.345 313.909 459.835 319.992C458.325 326.074 458.823 332.517 461.253 338.349L466.082 349.939Z" fill="#131316"/>
<path d="M430.708 736.532L423.086 726.554C419.252 721.53 413.921 717.875 407.898 716.141C401.874 714.407 395.485 714.688 389.694 716.942L382.261 719.835L388.476 714.833C393.327 710.94 396.766 705.54 398.273 699.449C399.78 693.359 399.272 686.909 396.828 681.075L391.999 669.485L399.621 679.462C403.453 684.485 408.781 688.14 414.803 689.875C420.824 691.61 427.211 691.331 433.002 689.081L440.452 686.193L434.219 691.19C429.375 695.08 425.94 700.472 424.432 706.554C422.924 712.636 423.425 719.078 425.859 724.908L430.708 736.532Z" fill="#131316"/>
<path d="M394.583 354.311L393.225 353.11C390.558 350.748 387.427 348.984 384.044 347.94C380.662 346.895 377.107 346.594 373.622 347.057V347.057C375.766 344.277 377.284 341.054 378.074 337.609C378.864 334.163 378.907 330.575 378.201 327.088L377.84 325.311L379.198 326.512C381.864 328.868 384.993 330.625 388.372 331.663C391.751 332.702 395.302 332.998 398.781 332.531V332.531C396.639 335.314 395.121 338.539 394.332 341.987C393.543 345.434 393.501 349.024 394.209 352.512L394.583 354.311Z" fill="#131316"/>
<path d="M570.211 467.047C550.86 506.328 524.849 545.589 502.621 574.741C485.477 597.168 467.056 618.565 447.448 638.824C433.643 653.051 446.396 677.316 465.883 673.646C502.231 666.81 534.653 646.781 557.057 617.322C559.851 613.663 562.425 609.906 564.829 606.082L590.732 626.349C618.06 547.646 590.434 487.33 578.677 466.866C578.236 466.106 577.601 465.477 576.84 465.045C576.079 464.614 575.219 464.396 574.352 464.415C573.486 464.433 572.643 464.687 571.914 465.151C571.185 465.614 570.597 466.269 570.211 467.047Z" fill="#131316"/>
<path d="M560.546 342.775C544.952 330.587 512.755 343.597 474.708 373.94C439.929 364.085 403.004 366.879 370.439 381.828C337.875 396.777 311.761 422.923 296.698 455.658C306.648 461.515 321.003 470.365 335.043 477.187C345.183 489.008 338.175 505.5 337.966 521.01C337.756 536.52 340.522 545.677 330.07 556.9C319.619 568.122 310.33 579.274 295.012 580.438C297.56 586.527 300.488 592.453 303.776 598.178C284.409 643.139 280.138 678 295.714 690.183C323.846 712.187 405.937 652.263 479.082 556.341C552.227 460.42 588.667 364.785 560.546 342.775ZM342.989 651.353C326.033 663.143 313.11 667.611 306.708 662.615C299.533 656.996 301.663 640.336 311.088 616.832C311.269 616.378 311.565 615.981 311.947 615.681C312.329 615.381 312.783 615.187 313.265 615.12C313.747 615.053 314.24 615.114 314.696 615.298C315.151 615.481 315.553 615.781 315.861 616.167C323.78 626.345 332.912 635.507 343.046 643.44C343.665 643.905 344.167 644.511 344.512 645.207C344.856 645.903 345.033 646.669 345.027 647.442C345.022 648.215 344.834 648.973 344.48 649.653C344.125 650.333 343.614 650.916 342.989 651.353ZM429.075 472.311C424.608 475.898 421.441 480.87 420.048 486.478C418.656 492.085 419.115 498.025 421.356 503.403L425.832 514.099L418.802 504.892C415.265 500.263 410.351 496.896 404.798 495.297C399.246 493.699 393.356 493.957 388.016 496.031L381.15 498.702L386.89 494.08C391.358 490.497 394.528 485.527 395.922 479.921C397.315 474.315 396.857 468.375 394.615 462.999L390.157 452.308L397.187 461.515C400.722 466.144 405.636 469.511 411.188 471.107C416.74 472.704 422.629 472.443 427.966 470.365L434.828 467.711L429.075 472.311ZM485.88 481.37L486.237 483.164L484.872 481.952C482.205 479.596 479.077 477.839 475.697 476.801C472.318 475.762 468.768 475.466 465.288 475.933C467.438 473.155 468.96 469.933 469.75 466.486C470.54 463.04 470.58 459.45 469.867 455.963L469.506 454.187L470.876 455.381C473.539 457.742 476.668 459.502 480.048 460.541C483.428 461.58 486.979 461.873 490.459 461.4C488.31 464.18 486.788 467.404 485.999 470.853C485.21 474.301 485.171 477.893 485.887 481.381L485.88 481.37ZM337.966 429.306C360.176 406.94 389.837 393.645 421.384 391.916C452.931 390.187 484.193 400.142 509.305 419.914C452.663 401.725 391.686 405.068 337.966 429.306ZM536.513 400.054C536.245 400.752 535.816 401.373 535.263 401.868C534.71 402.363 534.047 402.719 533.328 402.906C532.609 403.092 531.854 403.105 531.124 402.944C530.394 402.782 529.709 402.45 529.124 401.974C528.724 401.664 528.316 401.343 527.927 401.026C517.449 392.83 505.985 386.017 493.821 380.757C493.366 380.564 492.967 380.256 492.664 379.862C492.361 379.468 492.164 379.002 492.093 378.512C492.021 378.021 492.078 377.522 492.258 377.064C492.437 376.606 492.733 376.205 493.115 375.901C515.226 358.398 532.244 350.783 539.922 356.788C546.841 362.193 545.095 377.88 536.507 400.043L536.513 400.054Z" fill="#131316"/>
<path d="M342.536 486.931C337.725 478.587 331.096 471.439 323.161 466.037C315.225 460.635 306.194 457.123 296.763 455.771C287.886 475.152 283.145 496.251 282.843 517.718C282.542 539.185 286.686 560.547 295.012 580.438C305.405 579.567 315.373 576.065 323.998 570.257C332.622 564.449 339.625 556.522 344.36 547.205C349.095 537.889 351.41 527.484 351.091 516.95C350.773 506.416 347.83 496.092 342.536 486.931Z" fill="#131316"/>
</g>
<g clip-path="url(#clip2_136_559)">
<path d="M1093.94 1029.29L949.336 884.686L1061.25 772.767L1081.28 710.39L1151.75 733.319L1240.03 883.206L1219.95 1018.86L1122.43 1000.81L1093.94 1029.29Z" fill="#131316"/>
<path d="M1298.31 907.98L1311.71 890.602C1318.44 881.859 1322.2 871.213 1322.4 860.266C1322.61 849.32 1319.25 838.665 1312.84 829.906L1304.58 818.652L1315.85 826.897C1324.61 833.312 1335.26 836.672 1346.2 836.47C1357.15 836.267 1367.79 832.514 1376.53 825.774L1393.93 812.365L1380.52 829.759C1373.78 838.503 1370.02 849.152 1369.83 860.1C1369.63 871.048 1372.99 881.702 1379.41 890.455L1387.64 901.709L1376.4 893.464C1367.64 887.048 1356.99 883.688 1346.04 883.891C1335.09 884.093 1324.44 887.847 1315.69 894.587L1298.31 907.98Z" fill="#131316"/>
<path d="M1258.59 789.271L1260.01 786.435C1262.79 780.865 1264.35 774.782 1264.58 768.6C1264.82 762.418 1263.72 756.282 1261.36 750.608V750.608C1267.02 752.97 1273.15 754.076 1279.32 753.851C1285.49 753.626 1291.57 752.076 1297.14 749.306L1299.97 747.893L1298.56 750.729C1295.79 756.295 1294.24 762.371 1294.01 768.544C1293.79 774.718 1294.89 780.844 1297.26 786.507V786.507C1291.59 784.149 1285.46 783.046 1279.28 783.274C1273.11 783.501 1267.03 785.054 1261.46 787.826L1258.59 789.271Z" fill="#131316"/>
<path d="M1147.74 1136.71C1072.68 1121.82 994.643 1095.67 935.383 1071.33C889.772 1052.54 845.324 1031.12 802.258 1007.19C772 990.319 736.809 1022.82 751.818 1054.05C779.797 1112.32 828.269 1157.98 888.128 1182.48C895.568 1185.54 903.074 1188.18 910.616 1190.51L888.121 1243.4C1033.33 1253.93 1122.64 1180.02 1151.87 1150.92C1152.95 1149.83 1153.73 1148.48 1154.11 1147C1154.5 1145.52 1154.48 1143.97 1154.05 1142.51C1153.63 1141.06 1152.82 1139.75 1151.71 1138.73C1150.59 1137.71 1149.22 1137.01 1147.74 1136.71Z" fill="#131316"/>
<path d="M1353.13 1064.19C1366.65 1032.36 1330.13 983.893 1261.7 933.395C1262.61 870.232 1241.19 809.168 1201.23 760.962C1161.26 712.756 1105.32 680.502 1043.25 669.883C1037.87 689.326 1029.42 717.56 1024.26 744.344C1008.89 766.806 977.881 762.437 951.606 769.098C925.331 775.76 911.126 784.569 887.455 772.004C863.784 759.438 840.76 748.803 831.866 723.472C822.741 730.528 814.063 738.15 805.886 746.29C721.235 733.935 660.459 742.492 646.939 774.293C622.521 831.731 760.799 943.196 955.793 1023.28C1150.79 1103.36 1328.7 1121.61 1353.13 1064.19ZM733.864 836.53C706.294 813.241 692.907 793.449 698.446 780.382C704.684 765.731 733.77 761.79 777.706 767.069C778.554 767.169 779.358 767.489 780.038 767.998C780.717 768.507 781.249 769.186 781.58 769.97C781.912 770.753 782.032 771.613 781.928 772.465C781.824 773.316 781.5 774.13 780.988 774.825C767.389 792.796 756.054 812.354 747.247 833.047C746.741 834.302 745.946 835.424 744.927 836.32C743.908 837.216 742.695 837.861 741.388 838.202C740.081 838.542 738.717 838.568 737.408 838.277C736.1 837.987 734.885 837.388 733.864 836.53ZM1075.02 900.861C1066.94 894.944 1057.12 891.846 1047.02 892.032C1036.93 892.218 1027.11 895.679 1019.04 901.894L1003.01 914.286L1015.37 898.257C1021.59 890.193 1025.05 880.374 1025.24 870.279C1025.42 860.184 1022.32 850.359 1016.41 842.284L1008.79 831.902L1019.19 839.5C1027.26 845.422 1037.08 848.526 1047.18 848.342C1057.27 848.159 1067.09 844.698 1075.15 838.483L1091.18 826.122L1078.82 842.152C1072.6 850.213 1069.14 860.03 1068.96 870.124C1068.77 880.218 1071.88 890.04 1077.8 898.108L1085.38 908.491L1075.02 900.861ZM1085.42 1000.84L1082.55 1002.26L1083.98 999.404C1086.75 993.838 1088.3 987.762 1088.52 981.589C1088.75 975.415 1087.64 969.289 1085.28 963.626C1090.94 965.998 1097.07 967.109 1103.24 966.884C1109.42 966.659 1115.5 965.103 1121.06 962.323L1123.9 960.91L1122.5 963.762C1119.72 969.325 1118.16 975.402 1117.94 981.578C1117.71 987.753 1118.82 993.88 1121.2 999.541C1115.53 997.169 1109.4 996.059 1103.22 996.287C1097.04 996.514 1090.97 998.074 1085.4 1000.86L1085.42 1000.84ZM1106.4 727.622C1154.2 754.996 1190.05 799.05 1207.24 851.517C1224.43 903.985 1221.76 961.258 1199.75 1012.59C1204.83 908.752 1171.61 807.337 1106.4 727.622ZM1245.57 1049.53C1244.28 1049.39 1243.03 1048.95 1241.95 1048.24C1240.86 1047.53 1239.96 1046.57 1239.32 1045.44C1238.68 1044.32 1238.32 1043.05 1238.26 1041.74C1238.2 1040.44 1238.45 1039.13 1238.99 1037.93C1239.33 1037.11 1239.69 1036.28 1240.05 1035.48C1249.15 1014.08 1255.46 991.652 1258.84 968.741C1258.96 967.886 1259.3 967.073 1259.83 966.383C1260.35 965.694 1261.05 965.151 1261.85 964.808C1262.64 964.466 1263.51 964.336 1264.37 964.432C1265.22 964.527 1266.03 964.845 1266.72 965.353C1306.26 994.759 1326.81 1020.04 1320.15 1035.72C1314.15 1049.84 1286.89 1053.99 1245.59 1049.52L1245.57 1049.53Z" fill="#131316"/>
<path d="M1011.2 761.401C1023.11 749.505 1032.17 735.083 1037.7 719.245C1043.23 703.407 1045.08 686.575 1043.09 670.045C1006.36 663.826 968.603 665.366 932.231 674.566C895.86 683.766 861.676 700.423 831.867 723.473C838.038 740.622 848.457 755.865 862.161 767.796C875.866 779.727 892.415 787.961 910.282 791.74C928.149 795.519 946.76 794.72 964.396 789.418C982.033 784.116 998.129 774.48 1011.2 761.401Z" fill="#131316"/>
</g>
<defs>
<clipPath id="clip0_136_559">
<rect width="186.499" height="175.739" fill="white" transform="translate(836.478 72.5879) rotate(60)"/>
</clipPath>
<clipPath id="clip1_136_559">
<rect width="411.002" height="387.29" fill="white" transform="translate(151 442.501) rotate(-30)"/>
</clipPath>
<clipPath id="clip2_136_559">
<rect width="718.228" height="676.791" fill="white" transform="translate(999.564 418) rotate(45)"/>
</clipPath>
</defs>
</svg>
