<svg width="12" height="8" viewBox="0 0 12 8" fill="currentColor" xmlns="http://www.w3.org/2000/svg">
<path d="M1.94393 5.1718L7.58593 5.1718L6.46493 6.2928C6.27742 6.48044 6.17213 6.73488 6.17222 7.00015C6.17232 7.26542 6.27779 7.51979 6.46543 7.7073C6.65307 7.89481 6.90751 8.00009 7.17278 8C7.43805 7.99991 7.69242 7.89444 7.87993 7.7068L10.7069 4.8788C10.8003 4.78613 10.8743 4.6759 10.9249 4.55448C10.9754 4.43305 11.0015 4.30282 11.0015 4.1713C11.0015 4.03977 10.9754 3.90954 10.9249 3.78812C10.8743 3.66669 10.8003 3.55647 10.7069 3.4638L7.87893 0.635797C7.69142 0.448157 7.43705 0.342689 7.17178 0.342595C6.90651 0.342501 6.65207 0.44779 6.46443 0.635298C6.27679 0.822806 6.17132 1.07717 6.17122 1.34244C6.17113 1.60771 6.27642 1.86216 6.46393 2.0498L7.58593 3.1718L1.94393 3.1718C1.8126 3.1718 1.68257 3.19766 1.56124 3.24792C1.43992 3.29817 1.32968 3.37183 1.23682 3.46469C1.14396 3.55755 1.0703 3.66779 1.02005 3.78911C0.969792 3.91044 0.943926 4.04048 0.943926 4.1718C0.943926 4.30312 0.969792 4.43316 1.02005 4.55448C1.0703 4.67581 1.14396 4.78605 1.23682 4.8789C1.32968 4.97176 1.43992 5.04542 1.56124 5.09568C1.68257 5.14593 1.8126 5.1718 1.94393 5.1718Z" fill="currentColor"/>
</svg>
