<svg width="15" height="15" viewBox="0 0 15 15" fill="none" xmlns="http://www.w3.org/2000/svg">
<path d="M3.125 1.5625H11.875C12.3723 1.5625 12.8492 1.76004 13.2008 2.11167C13.5525 2.46331 13.75 2.94022 13.75 3.4375V8.4375C13.75 8.93478 13.5525 9.41169 13.2008 9.76333C12.8492 10.115 12.3723 10.3125 11.875 10.3125H7.52625L3.49875 13.3175C3.40581 13.3868 3.2954 13.429 3.17988 13.4392C3.06437 13.4493 2.9483 13.4272 2.84465 13.3752C2.74101 13.3231 2.65388 13.2433 2.59301 13.1446C2.53215 13.0459 2.49994 12.9322 2.5 12.8162V10.3125C2.16848 10.3125 1.85054 10.1808 1.61612 9.94638C1.3817 9.71196 1.25 9.39402 1.25 9.0625V3.4375C1.25 2.94022 1.44754 2.46331 1.79917 2.11167C2.15081 1.76004 2.62772 1.5625 3.125 1.5625V1.5625ZM7.11125 9.0625H11.875C12.0408 9.0625 12.1997 8.99665 12.3169 8.87944C12.4342 8.76223 12.5 8.60326 12.5 8.4375V3.4375C12.5 3.27174 12.4342 3.11277 12.3169 2.99556C12.1997 2.87835 12.0408 2.8125 11.875 2.8125H3.125C2.95924 2.8125 2.80027 2.87835 2.68306 2.99556C2.56585 3.11277 2.5 3.27174 2.5 3.4375V8.4375C2.5 8.60326 2.56585 8.76223 2.68306 8.87944C2.80027 8.99665 2.95924 9.0625 3.125 9.0625C3.29076 9.0625 3.44973 9.12835 3.56694 9.24556C3.68415 9.36277 3.75 9.52174 3.75 9.6875V11.5706L7.11125 9.0625ZM9.375 7.1875C9.04348 7.1875 8.72554 7.0558 8.49112 6.82138C8.2567 6.58696 8.125 6.26902 8.125 5.9375C8.125 5.60598 8.2567 5.28804 8.49112 5.05362C8.72554 4.8192 9.04348 4.6875 9.375 4.6875C9.70652 4.6875 10.0245 4.8192 10.2589 5.05362C10.4933 5.28804 10.625 5.60598 10.625 5.9375C10.625 6.26902 10.4933 6.58696 10.2589 6.82138C10.0245 7.0558 9.70652 7.1875 9.375 7.1875ZM5.625 7.1875C5.29348 7.1875 4.97554 7.0558 4.74112 6.82138C4.5067 6.58696 4.375 6.26902 4.375 5.9375C4.375 5.60598 4.5067 5.28804 4.74112 5.05362C4.97554 4.8192 5.29348 4.6875 5.625 4.6875C5.95652 4.6875 6.27446 4.8192 6.50888 5.05362C6.7433 5.28804 6.875 5.60598 6.875 5.9375C6.875 6.26902 6.7433 6.58696 6.50888 6.82138C6.27446 7.0558 5.95652 7.1875 5.625 7.1875Z" fill="white"/>
</svg>
