<svg width="20" height="20" viewBox="0 0 20 20" fill="none" xmlns="http://www.w3.org/2000/svg">
<path d="M18.88 1.099C18.147 0.366 17.265 0 16.233 0H3.746C2.714 0 1.832 0.366 1.099 1.099C0.366 1.832 0 2.714 0 3.746V16.233C0 17.265 0.366 18.147 1.099 18.88C1.832 19.613 2.714 19.979 3.746 19.979H6.66C6.85 19.979 6.993 19.972 7.089 19.959C7.20069 19.9366 7.30151 19.877 7.375 19.79C7.47 19.69 7.518 19.545 7.518 19.355L7.511 18.47C7.507 17.906 7.505 17.46 7.505 17.13L7.205 17.182C7.015 17.217 6.775 17.232 6.484 17.228C6.18069 17.2224 5.87834 17.192 5.58 17.137C5.2624 17.0784 4.96343 16.9446 4.708 16.747C4.44049 16.5446 4.24097 16.2656 4.136 15.947L4.006 15.647C3.89643 15.4104 3.75877 15.1877 3.596 14.984C3.41 14.741 3.221 14.577 3.03 14.49L2.94 14.425C2.87724 14.3801 2.82016 14.3277 2.77 14.269C2.72209 14.2145 2.68265 14.1532 2.653 14.087C2.627 14.026 2.649 13.976 2.718 13.937C2.788 13.897 2.913 13.878 3.096 13.878L3.356 13.918C3.529 13.952 3.744 14.056 3.999 14.229C4.25706 14.4049 4.47263 14.6362 4.63 14.906C4.83 15.261 5.07 15.532 5.352 15.719C5.634 15.905 5.918 15.999 6.204 15.999C6.49 15.999 6.737 15.977 6.946 15.934C7.14811 15.8922 7.34451 15.8264 7.531 15.738C7.609 15.158 7.821 14.71 8.168 14.398C7.71838 14.3539 7.27276 14.2757 6.835 14.164C6.40779 14.0466 5.99694 13.8763 5.612 13.657C5.20924 13.4377 4.8535 13.1414 4.565 12.785C4.288 12.438 4.06 11.983 3.882 11.42C3.705 10.856 3.616 10.205 3.616 9.468C3.616 8.419 3.958 7.526 4.643 6.788C4.323 6 4.353 5.115 4.734 4.136C4.986 4.057 5.359 4.116 5.853 4.311C6.347 4.506 6.709 4.673 6.939 4.811C7.169 4.951 7.353 5.068 7.492 5.163C8.30498 4.93675 9.14513 4.82303 9.989 4.825C10.848 4.825 11.68 4.938 12.487 5.163L12.981 4.851C13.361 4.62285 13.7618 4.43132 14.178 4.279C14.638 4.105 14.988 4.058 15.232 4.136C15.622 5.116 15.656 6 15.335 6.789C16.02 7.526 16.363 8.419 16.363 9.469C16.363 10.206 16.274 10.859 16.096 11.426C15.919 11.994 15.689 12.449 15.407 12.792C15.125 13.135 14.774 13.422 14.354 13.657C13.934 13.891 13.526 14.06 13.131 14.164C12.6933 14.2761 12.2477 14.3546 11.798 14.399C12.248 14.789 12.474 15.404 12.474 16.245V19.355C12.474 19.502 12.495 19.621 12.539 19.712C12.5592 19.7558 12.5881 19.7952 12.6238 19.8276C12.6595 19.8601 12.7014 19.8851 12.747 19.901C12.843 19.935 12.927 19.957 13.001 19.965C13.075 19.975 13.181 19.978 13.319 19.978H16.233C17.265 19.978 18.147 19.612 18.88 18.879C19.612 18.147 19.979 17.264 19.979 16.232V3.746C19.979 2.714 19.612 1.832 18.879 1.099H18.88Z" fill="#3F3F4F"/>
</svg>
