<svg width="25" height="24" viewBox="0 0 25 24" fill="none" xmlns="http://www.w3.org/2000/svg">
<path d="M16.996 2H8.926C7.34916 2.00185 5.83744 2.62914 4.72253 3.74424C3.60763 4.85933 2.98059 6.37115 2.979 7.948L2.979 16.018C2.98086 17.5948 3.60815 19.1066 4.72324 20.2215C5.83833 21.3364 7.35016 21.9634 8.927 21.965H16.997C18.5739 21.9631 20.0856 21.3359 21.2005 20.2208C22.3154 19.1057 22.9424 17.5938 22.944 16.017V7.947C22.9422 6.37015 22.3149 4.85844 21.1998 3.74353C20.0847 2.62862 18.5729 2.00159 16.996 2V2ZM20.936 16.017C20.936 16.5344 20.8341 17.0468 20.6361 17.5248C20.4381 18.0028 20.1479 18.4371 19.782 18.803C19.4161 19.1689 18.9818 19.4591 18.5038 19.6571C18.0258 19.8551 17.5134 19.957 16.996 19.957H8.926C7.88122 19.9567 6.87933 19.5415 6.14065 18.8026C5.40197 18.0638 4.987 17.0618 4.987 16.017V7.947C4.98727 6.90222 5.40249 5.90032 6.14136 5.16165C6.88022 4.42297 7.88222 4.008 8.927 4.008H16.997C18.0418 4.00827 19.0437 4.42349 19.7824 5.16235C20.521 5.90122 20.936 6.90322 20.936 7.948V16.018V16.017Z" fill="#3F3F4F"/>
<path d="M12.9611 6.81934C11.5925 6.82145 10.2806 7.36612 9.31297 8.33394C8.34534 9.30176 7.80092 10.6138 7.79907 11.9823C7.80066 13.3513 8.34509 14.6637 9.31297 15.6317C10.2809 16.5998 11.5932 17.1445 12.9621 17.1463C14.3312 17.1447 15.6437 16.6002 16.6118 15.6321C17.5799 14.664 18.1245 13.3514 18.1261 11.9823C18.124 10.6134 17.579 9.30122 16.6108 8.33353C15.6425 7.36584 14.33 6.82166 12.9611 6.82034V6.81934ZM12.9611 15.1383C12.1243 15.1383 11.3218 14.8059 10.7302 14.2143C10.1385 13.6226 9.80607 12.8201 9.80607 11.9833C9.80607 11.1466 10.1385 10.3441 10.7302 9.75241C11.3218 9.16074 12.1243 8.82834 12.9611 8.82834C13.7978 8.82834 14.6003 9.16074 15.192 9.75241C15.7837 10.3441 16.1161 11.1466 16.1161 11.9833C16.1161 12.8201 15.7837 13.6226 15.192 14.2143C14.6003 14.8059 13.7978 15.1383 12.9611 15.1383Z" fill="#3F3F4F"/>
<path d="M18.1349 8.09509C18.8181 8.09509 19.3719 7.54127 19.3719 6.85809C19.3719 6.17492 18.8181 5.62109 18.1349 5.62109C17.4518 5.62109 16.8979 6.17492 16.8979 6.85809C16.8979 7.54127 17.4518 8.09509 18.1349 8.09509Z" fill="#3F3F4F"/>
</svg>
