<svg width="27" height="27" viewBox="0 0 27 27" fill="none" xmlns="http://www.w3.org/2000/svg">
<path d="M21.2705 7.24494L12.6586 15.8568C12.914 16.2224 13.1311 16.6173 13.3055 17.0358L15.4543 22.2097L21.2705 7.24382V7.24494ZM11.1433 14.3414L19.7563 5.72844L4.79039 11.5447L9.96426 13.6946C10.3796 13.8668 10.7749 14.0837 11.1433 14.3414ZM24.2135 5.49669L17.4331 22.9409C17.0056 24.0434 15.7715 24.6093 14.678 24.2054C14.4116 24.107 14.1685 23.9545 13.9639 23.7577C13.7592 23.5608 13.5975 23.3237 13.4889 23.0613L11.3401 17.8874C10.922 16.8792 10.1209 16.078 9.11264 15.6599L3.93764 13.5112C2.86439 13.0646 2.37389 11.8237 2.84414 10.7369C2.95944 10.4714 3.12617 10.2313 3.33469 10.0305C3.54322 9.82969 3.78944 9.67215 4.05914 9.56694L21.5034 2.78432C21.8824 2.63157 22.298 2.59366 22.6985 2.67531C23.0989 2.75697 23.4664 2.95458 23.7554 3.24354C24.0444 3.53251 24.242 3.90008 24.3236 4.30051C24.4053 4.70093 24.3674 5.11652 24.2146 5.49557L24.2135 5.49669Z" fill="url(#paint0_linear_52_2851)"/>
<defs>
<linearGradient id="paint0_linear_52_2851" x1="13.5156" y1="2.6333" x2="13.5156" y2="24.3358" gradientUnits="userSpaceOnUse">
<stop stop-color="#D478FF"/>
<stop offset="0.572917" stop-color="#7E59F6"/>
<stop offset="1" stop-color="#503DC4"/>
</linearGradient>
</defs>
</svg>
