<svg width="21" height="17" viewBox="0 0 21 17" fill="none" xmlns="http://www.w3.org/2000/svg">
<path d="M20.979 1.90668C20.2294 2.23405 19.4355 2.44871 18.623 2.54368C19.4758 2.04291 20.1171 1.24878 20.427 0.309676C19.619 0.780004 18.7377 1.11128 17.82 1.28968C17.4336 0.884881 16.9687 0.563063 16.4538 0.343854C15.9388 0.124645 15.3846 0.0126411 14.825 0.0146757C12.559 0.0146757 10.722 1.82468 10.722 4.05468C10.722 4.37068 10.758 4.67968 10.828 4.97468C9.20258 4.89737 7.61112 4.48208 6.15517 3.75531C4.69922 3.02855 3.41076 2.00626 2.372 0.753676C2.00783 1.36808 1.81642 2.06946 1.818 2.78368C1.818 4.18668 2.542 5.42368 3.642 6.14668C2.99149 6.12568 2.35503 5.952 1.784 5.63968V5.68968C1.784 7.64768 3.199 9.28068 5.074 9.65268C4.72161 9.74617 4.35859 9.79357 3.994 9.79368C3.729 9.79368 3.472 9.76868 3.221 9.71868C3.48909 10.5266 4.00211 11.231 4.68882 11.734C5.37553 12.237 6.20185 12.5137 7.053 12.5257C5.59307 13.6502 3.80082 14.2577 1.958 14.2527C1.626 14.2527 1.3 14.2327 0.979004 14.1967C2.86026 15.3874 5.0416 16.018 7.268 16.0147C14.815 16.0147 18.941 9.85768 18.941 4.51868L18.927 3.99568C19.7319 3.42935 20.4271 2.72152 20.979 1.90668Z" fill="#3F3F4F"/>
</svg>
