<svg width="2" height="18" viewBox="0 0 2 18" fill="currentColor" xmlns="http://www.w3.org/2000/svg">
<path d="M0.292893 17.7071C0.48043 17.8946 0.734784 18 1 18C1.26522 18 1.51957 17.8946 1.70711 17.7071C1.89464 17.5196 2 17.2652 2 17L2 1C2 0.734783 1.89464 0.480429 1.70711 0.292892C1.51957 0.105356 1.26521 6.42368e-08 0.999998 8.74228e-08C0.734782 1.10609e-07 0.480428 0.105356 0.292892 0.292893C0.105356 0.480429 -1.50937e-06 0.734783 -1.48619e-06 1L-8.74228e-08 17C-6.42368e-08 17.2652 0.105357 17.5196 0.292893 17.7071Z" fill="currentColor"/>
</svg>
