<svg width="89" height="38" viewBox="0 0 89 38" fill="none" xmlns="http://www.w3.org/2000/svg">
<g clip-path="url(#clip0_52_2754)">
<path d="M18.758 13.5015H11.0701V7.65488L9.94434 5.50254L12.4271 4.26074L18.758 5.86995L21.8301 9.93753L18.758 12.0134V13.5015Z" fill="white"/>
<path d="M41.3451 22.1498H40.9559C39.4644 22.1498 38.1634 21.8228 37.0531 21.1687C35.9552 20.5274 35.0604 19.5897 34.4711 18.4631C33.8607 17.3141 33.5552 15.9988 33.5547 14.5174C33.5547 13.027 33.8602 11.7099 34.4711 10.5659C35.0621 9.44219 35.9571 8.5073 37.0539 7.86788C38.1648 7.21377 39.4658 6.88672 40.9567 6.88672H41.346C42.8375 6.88672 44.1362 7.21377 45.242 7.86788C46.3356 8.50905 47.2277 9.44368 47.8173 10.5659C48.4277 11.7099 48.7332 13.027 48.7337 14.5174C48.7337 15.9988 48.4282 17.3141 47.8173 18.4631C47.2291 19.5883 46.3369 20.5257 45.242 21.1687C44.1351 21.8228 42.8361 22.1498 41.3451 22.1498ZM40.9702 19.0331H41.3308C42.4182 19.0331 43.2792 18.622 43.9137 17.7997C44.5481 16.9775 44.8657 15.8845 44.8662 14.5208C44.8662 13.1453 44.5487 12.0487 43.9137 11.2309C43.2786 10.4131 42.4177 10.0045 41.3308 10.0051H40.9702C39.8828 10.0051 39.0218 10.414 38.3874 11.2317C37.7529 12.0495 37.4356 13.1462 37.4356 14.5216C37.4356 15.887 37.7529 16.98 38.3874 17.8006C39.0218 18.6212 39.8828 19.032 40.9702 19.0331Z" fill="white"/>
<path d="M51.1416 21.7891V7.24399H54.7627V9.6536C55.687 7.80394 57 6.8805 58.7017 6.88331C59.1426 6.88303 59.5825 6.9264 60.0149 7.01278V10.4902C59.8031 10.4515 59.541 10.4178 59.2288 10.3893C58.9161 10.3607 58.6344 10.3455 58.3839 10.3455C57.4899 10.3455 56.759 10.5933 56.1912 11.0888C55.6234 11.5843 55.1907 12.2703 54.8931 13.1469V21.7891H51.1416Z" fill="white"/>
<path d="M62.0342 21.7893V0.724121H65.7856V9.17877C66.8147 7.64972 68.244 6.88519 70.0735 6.88519H70.4628C71.6847 6.88519 72.7645 7.20243 73.7022 7.83692C74.6399 8.47142 75.3781 9.35897 75.9168 10.4996C76.456 11.6391 76.7253 12.9737 76.7247 14.5033C76.7247 16.0419 76.4554 17.3837 75.9168 18.5288C75.3781 19.6739 74.6399 20.5635 73.7022 21.1974C72.7639 21.8324 71.6841 22.15 70.4628 22.15H70.0735C68.207 22.15 66.7354 21.3997 65.6587 19.8993V21.7893H62.0342ZM69.0604 19.0333H69.3353C70.4003 19.0333 71.2492 18.6364 71.882 17.8428C72.5148 17.0491 72.8295 15.9359 72.8261 14.5033C72.8261 13.0796 72.5114 11.9734 71.882 11.1848C71.2525 10.3962 70.4036 10.003 69.3353 10.0052H69.0604C68.3595 9.99515 67.6765 10.2271 67.1266 10.6619C66.5415 11.1325 66.0798 11.7384 65.7814 12.4275V16.6111C66.1177 17.3521 66.5661 17.9406 67.1266 18.3767C67.6763 18.8118 68.3594 19.0438 69.0604 19.0333Z" fill="white"/>
<path d="M85.9255 21.9907C84.0977 21.9907 82.7174 21.5532 81.7848 20.6783C80.8521 19.8033 80.3855 18.4374 80.3849 16.5804V10.0889H77.4868V7.24548H80.3866V3.06104H84.138V7.24548H88.7841V10.0889H84.138V16.0474C84.138 17.1342 84.3544 17.8892 84.7871 18.3124C85.2198 18.7355 85.879 18.9471 86.7646 18.9471C87.1527 18.9488 87.5406 18.925 87.9257 18.8757C88.2863 18.8269 88.6445 18.7697 89.0001 18.7016V21.6022C88.523 21.7245 88.039 21.8183 87.5507 21.8831C87.012 21.9561 86.469 21.9921 85.9255 21.9907Z" fill="white"/>
<path d="M20.9661 4.99494L20.8602 4.19117C20.8069 3.78679 20.6237 3.41066 20.3382 3.11938C20.0527 2.8281 19.6803 2.63744 19.277 2.57608L18.7583 2.49789L19.277 2.41886C19.6803 2.35781 20.0527 2.16735 20.3383 1.87619C20.6238 1.58502 20.807 1.20894 20.8602 0.804604L20.9661 0L21.0721 0.804604C21.1253 1.20906 21.3086 1.58524 21.5943 1.87641C21.88 2.16759 22.2527 2.35797 22.656 2.41886L23.174 2.49789L22.656 2.57608C22.2527 2.63727 21.8801 2.82786 21.5944 3.11915C21.3087 3.41045 21.1254 3.78667 21.0721 4.19117L20.9661 4.99494Z" fill="#D478FF"/>
<path d="M6.25519 25.4647L6.14926 24.661C6.09619 24.2564 5.91296 23.88 5.62723 23.5887C5.3415 23.2973 4.96877 23.1068 4.56527 23.0459L4.04736 22.9677L4.56527 22.8887C4.96914 22.8276 5.34215 22.6367 5.62792 22.3449C5.9137 22.053 6.09669 21.6761 6.14926 21.271L6.25519 20.4673L6.36113 21.271C6.41415 21.6755 6.59725 22.0518 6.88282 22.3431C7.16838 22.6345 7.54093 22.825 7.94427 22.8861L8.46302 22.9652L7.94427 23.0434C7.54093 23.1045 7.16838 23.295 6.88282 23.5864C6.59725 23.8777 6.41415 24.254 6.36113 24.6585L6.25519 25.4647Z" fill="#D478FF"/>
<path d="M16.7546 2.93161L16.7167 2.82063C16.6426 2.60247 16.5224 2.40283 16.3643 2.23527C16.2061 2.06771 16.0138 1.93615 15.8003 1.84955C16.0136 1.76332 16.2058 1.63218 16.364 1.46506C16.5221 1.29794 16.6424 1.09874 16.7167 0.880999L16.7546 0.77002L16.7924 0.880999C16.8667 1.09874 16.987 1.29794 17.1451 1.46506C17.3033 1.63218 17.4955 1.76332 17.7088 1.84955C17.4955 1.93597 17.3032 2.06727 17.1451 2.23453C16.987 2.40179 16.8667 2.6011 16.7924 2.81894L16.7546 2.93161Z" fill="#7E59F6"/>
<path d="M23.0433 14.9024C20.6521 16.4737 17.8827 17.829 15.6606 18.7413C13.9486 19.4417 12.1978 20.0433 10.4168 20.543C9.16404 20.8927 9.09257 22.6609 10.3218 23.0846C12.6142 23.8756 15.1166 23.8024 17.3589 22.8786C17.638 22.7643 17.9079 22.6373 18.1702 22.5011L18.9782 24.4702C23.1181 20.9524 23.5275 16.689 23.5309 15.1655C23.5307 15.1088 23.5153 15.0531 23.4861 15.0044C23.457 14.9558 23.4153 14.9158 23.3653 14.8889C23.3154 14.862 23.2591 14.849 23.2024 14.8513C23.1458 14.8537 23.0908 14.8713 23.0433 14.9024Z" fill="#7E59F6"/>
<path d="M7.85689 5.44204C7.4032 5.09484 6.88148 4.84708 6.32568 4.71489C5.76988 4.58271 5.19248 4.56906 4.63106 4.67484C4.06963 4.78062 3.53678 5.00345 3.0672 5.32883C2.59761 5.65421 2.20182 6.07484 1.90559 6.56334C1.60935 7.05183 1.41932 7.59724 1.34787 8.16406C1.27641 8.73087 1.32513 9.30638 1.49086 9.85311C1.65659 10.3998 1.9356 10.9055 2.30974 11.3373C2.68388 11.769 3.14475 12.1171 3.66236 12.3589C3.84113 10.9774 4.3066 9.64851 5.02892 8.45738C5.75124 7.26625 6.71448 6.23919 7.85689 5.44204Z" fill="#D478FF"/>
<path d="M26.5755 7.64347C26.0887 6.45885 23.8296 6.14693 20.6683 6.61523C19.0134 4.9418 16.8209 3.90618 14.4772 3.69085C12.1335 3.47553 9.78903 4.09431 7.85686 5.43817C8.65843 6.04597 9.20641 6.92918 9.39499 7.9173C9.58358 8.90541 9.3994 9.92836 8.87802 10.7886C8.35665 11.6489 7.53504 12.2856 6.57181 12.5756C5.60859 12.8657 4.57206 12.7886 3.66233 12.3593C3.60733 12.7819 3.57924 13.2077 3.57825 13.6339C0.999652 15.5222 -0.388437 17.3332 0.09752 18.517C0.97527 20.655 7.61389 19.9547 14.9259 16.9532C22.238 13.9517 27.4524 9.78152 26.5755 7.64347ZM4.06253 17.8721C2.71059 17.9839 1.82864 17.8166 1.62854 17.3307C1.4049 16.785 2.0733 15.9224 3.38152 14.9127C3.40673 14.8931 3.43661 14.8805 3.46819 14.876C3.49978 14.8716 3.53199 14.8754 3.56162 14.8872C3.59126 14.899 3.6173 14.9184 3.63718 14.9433C3.65705 14.9683 3.67007 14.998 3.67494 15.0295C3.79115 15.8541 4.00975 16.6611 4.32569 17.4316C4.3456 17.4776 4.35429 17.5276 4.35103 17.5777C4.34778 17.6277 4.33268 17.6762 4.30697 17.7193C4.28126 17.7623 4.24569 17.7986 4.20319 17.8252C4.16069 17.8518 4.11247 17.8679 4.06253 17.8721ZM14.841 10.6416C14.4691 10.698 14.1256 10.8737 13.8622 11.1422C13.5988 11.4108 13.4298 11.7577 13.3806 12.1306L13.284 12.873L13.1864 12.1314C13.1373 11.7585 12.9683 11.4116 12.7049 11.1431C12.4415 10.8745 12.0979 10.6988 11.726 10.6425L11.2476 10.5701L11.726 10.497C12.0979 10.4409 12.4415 10.2654 12.7049 9.99701C12.9684 9.72858 13.1374 9.38175 13.1864 9.00886L13.284 8.26732L13.3815 9.00886C13.4305 9.38175 13.5995 9.72858 13.863 9.99701C14.1264 10.2654 14.47 10.4409 14.8419 10.497L15.3194 10.5701L14.841 10.6416ZM17.7753 12.9814L17.7366 13.0933L17.6988 12.9814C17.6244 12.7637 17.5041 12.5645 17.346 12.3974C17.1879 12.2303 16.9956 12.0991 16.7823 12.0129C16.9958 11.927 17.1883 11.796 17.3464 11.6288C17.5046 11.4616 17.6248 11.2623 17.6988 11.0443L17.7366 10.9334L17.7753 11.0443C17.8492 11.2623 17.9694 11.4616 18.1276 11.6288C18.2858 11.796 18.4782 11.927 18.6917 12.0129C18.4781 12.0989 18.2856 12.23 18.1275 12.3973C17.9693 12.5647 17.8491 12.7642 17.7753 12.9823V12.9814ZM11.0702 5.29692C13.0684 4.76344 15.1927 4.97756 17.0442 5.89907C18.8957 6.82059 20.3473 8.38615 21.1265 10.3019C18.5015 7.457 14.9226 5.67579 11.0702 5.29692ZM23.3268 10.0699C23.2886 10.1002 23.2438 10.1211 23.1961 10.1309C23.1484 10.1408 23.099 10.1392 23.0519 10.1265C23.0049 10.1137 22.9615 10.0901 22.9253 10.0575C22.889 10.0249 22.861 9.98419 22.8434 9.93874C22.8307 9.90847 22.8181 9.87737 22.8064 9.8471C22.4795 9.05068 22.0511 8.29984 21.5318 7.61321C21.5122 7.58775 21.4997 7.55762 21.4954 7.52582C21.4911 7.49401 21.4952 7.46164 21.5072 7.4319C21.5193 7.40216 21.5389 7.37609 21.5642 7.35628C21.5894 7.33647 21.6194 7.3236 21.6512 7.31894C23.484 7.0541 24.7023 7.1777 24.9419 7.76118C25.158 8.28665 24.5434 9.10723 23.3268 10.0691V10.0699Z" fill="#503DC4"/>
<path d="M9.43727 8.66555C9.4376 8.04379 9.29528 7.43025 9.02125 6.87214C8.74722 6.31403 8.3488 5.82623 7.85665 5.44629C6.71498 6.24324 5.75221 7.26971 5.02994 8.46003C4.30767 9.65035 3.84179 10.9783 3.66211 12.359C4.28202 12.6457 4.96415 12.7717 5.64558 12.7254C6.32702 12.6791 6.98582 12.4619 7.56121 12.0939C8.13661 11.7259 8.61008 11.219 8.93795 10.6198C9.26583 10.0206 9.43754 9.34856 9.43727 8.66555Z" fill="white"/>
</g>
<path d="M55.8857 35H54.2379L56.7486 27.7273H58.7301L61.2372 35H59.5895L57.7678 29.3892H57.7109L55.8857 35ZM55.7827 32.1413H59.6747V33.3416H55.7827V32.1413ZM62.1126 35V27.7273H63.6502V33.7322H66.7681V35H62.1126ZM67.7864 35V27.7273H70.6557C71.2073 27.7273 71.6773 27.8326 72.0655 28.0433C72.4538 28.2517 72.7497 28.5417 72.9533 28.9134C73.1593 29.2827 73.2623 29.7088 73.2623 30.1918C73.2623 30.6747 73.1581 31.1009 72.9498 31.4702C72.7414 31.8395 72.4396 32.1271 72.0442 32.3331C71.6512 32.5391 71.1754 32.642 70.6167 32.642H68.7878V31.4098H70.3681C70.664 31.4098 70.9078 31.3589 71.0996 31.2571C71.2937 31.1529 71.4382 31.0097 71.5328 30.8274C71.6299 30.6428 71.6784 30.4309 71.6784 30.1918C71.6784 29.9503 71.6299 29.7396 71.5328 29.5597C71.4382 29.3774 71.2937 29.2365 71.0996 29.1371C70.9055 29.0353 70.6593 28.9844 70.361 28.9844H69.324V35H67.7864ZM74.261 35V27.7273H75.7987V30.728H78.9201V27.7273H80.4542V35H78.9201V31.9957H75.7987V35H74.261ZM82.9755 35H81.3278L83.8384 27.7273H85.82L88.3271 35H86.6793L84.8576 29.3892H84.8008L82.9755 35ZM82.8725 32.1413H86.7646V33.3416H82.8725V32.1413Z" fill="#434343"/>
<defs>
<clipPath id="clip0_52_2754">
<rect width="89" height="25.4648" fill="white"/>
</clipPath>
</defs>
</svg>
