<svg viewBox="0 0 2402 1391" fill="none" xmlns="http://www.w3.org/2000/svg">
<path d="M918.5 1229L913.87 1193.28C911.541 1175.3 903.534 1158.59 891.054 1145.64C878.575 1132.69 862.298 1124.22 844.673 1121.49L822 1118.02L844.673 1114.51C862.297 1111.79 878.577 1103.33 891.058 1090.39C903.538 1077.45 911.545 1060.73 913.87 1042.76L918.5 1007L923.13 1042.76C925.457 1060.74 933.469 1077.46 945.957 1090.4C958.445 1103.34 974.733 1111.8 992.363 1114.51L1015 1118.02L992.363 1121.49C974.732 1124.21 958.447 1132.68 945.96 1145.63C933.473 1158.58 925.461 1175.3 923.13 1193.28L918.5 1229Z" fill="#131316"/>
<path d="M673.5 1086L671.855 1081.07C668.632 1071.38 663.404 1062.52 656.527 1055.07C649.65 1047.63 641.285 1041.79 632 1037.94V1037.94C641.276 1034.11 649.637 1028.29 656.514 1020.87C663.391 1013.45 668.623 1004.6 671.855 994.929L673.5 990L675.145 994.929C678.377 1004.6 683.609 1013.45 690.486 1020.87C697.363 1028.29 705.724 1034.11 715 1037.94V1037.94C705.722 1041.78 697.362 1047.61 690.485 1055.04C683.609 1062.47 678.377 1071.32 675.145 1081L673.5 1086Z" fill="#131316"/>
<path d="M1864.41 522.67L1828.71 517.896C1810.74 515.495 1792.52 518.902 1776.79 527.605C1761.05 536.309 1748.66 549.838 1741.46 566.156L1732.24 587.158L1734.71 564.348C1736.65 546.622 1732.69 528.706 1723.42 513.302C1714.15 497.897 1700.08 485.837 1683.32 478.94L1649.98 465.212L1685.72 469.995C1703.68 472.4 1721.91 468.989 1737.64 460.275C1753.37 451.562 1765.76 438.02 1772.94 421.69L1782.19 400.734L1779.69 423.499C1777.75 441.233 1781.72 459.156 1790.99 474.568C1800.26 489.98 1814.34 502.047 1831.1 508.951L1864.41 522.67Z" fill="#131316"/>
<path d="M1007.47 417.933L1002.28 418.246C992.091 418.852 982.173 421.606 973.205 426.323C964.237 431.039 956.429 437.608 950.31 445.581V445.581C949.012 435.629 945.55 426.046 940.161 417.483C934.771 408.919 927.58 401.576 919.076 395.951L914.741 393.086L919.928 392.772C930.105 392.153 940.004 389.389 948.954 384.668C957.903 379.946 965.692 373.378 971.792 365.409V365.409C973.098 375.364 976.567 384.949 981.962 393.513C987.358 402.078 994.554 409.423 1003.06 415.048L1007.47 417.933Z" fill="#131316"/>
<g clip-path="url(#clip0_251_1288)">
<path d="M2158.1 1044.67H1930.6V868.571L1897.28 803.743L1970.75 766.34L2158.1 814.809L2249.01 937.324L2158.1 999.848V1044.67Z" fill="#131316"/>
<path d="M1788.11 1405L1784.97 1380.79C1783.4 1368.6 1777.98 1357.27 1769.53 1348.49C1761.07 1339.72 1750.04 1333.98 1738.1 1332.14L1722.77 1329.79L1738.1 1327.41C1750.05 1325.57 1761.09 1319.82 1769.55 1311.03C1778 1302.24 1783.42 1290.88 1784.97 1278.68L1788.11 1254.47L1791.24 1278.68C1792.81 1290.87 1798.23 1302.2 1806.68 1310.98C1815.13 1319.75 1826.16 1325.49 1838.09 1327.33L1853.44 1329.71L1838.09 1332.07C1826.16 1333.91 1815.13 1339.65 1806.68 1348.42C1798.23 1357.2 1792.81 1368.53 1791.24 1380.71L1788.11 1405Z" fill="#131316"/>
<path d="M2284.92 1086.86C2214.16 1134.19 2132.2 1175.01 2066.44 1202.49C2015.78 1223.58 1963.97 1241.7 1911.27 1256.75C1874.19 1267.29 1872.08 1320.54 1908.45 1333.31C1976.29 1357.13 2050.35 1354.93 2116.7 1327.1C2124.96 1323.66 2132.95 1319.84 2140.71 1315.73L2164.62 1375.04C2287.13 1269.09 2299.25 1140.67 2299.35 1094.79C2299.34 1093.08 2298.88 1091.4 2298.02 1089.93C2297.16 1088.47 2295.92 1087.27 2294.45 1086.45C2292.97 1085.64 2291.3 1085.25 2289.63 1085.32C2287.95 1085.39 2286.32 1085.92 2284.92 1086.86Z" fill="#131316"/>
<path d="M2389.44 868.216C2375.03 832.535 2308.18 823.14 2214.63 837.245C2165.65 786.842 2100.77 755.649 2031.42 749.163C1962.06 742.678 1892.68 761.315 1835.51 801.792C1859.23 820.099 1875.44 846.701 1881.02 876.463C1886.6 906.225 1881.15 937.036 1865.72 962.948C1850.29 988.86 1825.98 1008.03 1797.48 1016.77C1768.97 1025.51 1738.3 1023.19 1711.38 1010.26C1709.75 1022.99 1708.92 1035.81 1708.89 1048.65C1632.58 1105.52 1591.51 1160.07 1605.89 1195.72C1631.86 1260.12 1828.31 1239.03 2044.7 1148.62C2261.08 1058.22 2415.39 932.613 2389.44 868.216ZM1723.22 1176.3C1683.21 1179.67 1657.11 1174.63 1651.19 1159.99C1644.57 1143.56 1664.35 1117.58 1703.07 1087.16C1703.81 1086.57 1704.7 1086.19 1705.63 1086.06C1706.57 1085.93 1707.52 1086.04 1708.4 1086.4C1709.27 1086.75 1710.05 1087.34 1710.63 1088.09C1711.22 1088.84 1711.61 1089.73 1711.75 1090.68C1715.19 1115.52 1721.66 1139.82 1731.01 1163.03V1163.03C1731.6 1164.42 1731.85 1165.93 1731.76 1167.43C1731.66 1168.94 1731.22 1170.4 1730.45 1171.7C1729.69 1172.99 1728.64 1174.09 1727.38 1174.89C1726.13 1175.69 1724.7 1176.17 1723.22 1176.3V1176.3ZM2042.18 958.519C2031.18 960.217 2021.01 965.509 2013.22 973.598C2005.42 981.687 2000.42 992.134 1998.97 1003.37L1996.11 1025.73L1993.22 1003.39C1991.77 992.16 1986.76 981.712 1978.97 973.623C1971.18 965.534 1961.01 960.242 1950 958.545L1935.85 956.367L1950 954.164C1961.01 952.475 1971.18 947.189 1978.97 939.104C1986.77 931.019 1991.77 920.572 1993.22 909.341L1996.11 887.006L1998.99 909.341C2000.44 920.572 2005.45 931.019 2013.24 939.104C2021.04 947.189 2031.2 952.475 2042.21 954.164L2056.34 956.367L2042.18 958.519ZM2129.02 1028.99L2127.87 1032.36L2126.75 1028.99C2124.55 1022.44 2120.99 1016.44 2116.31 1011.4C2111.63 1006.37 2105.95 1002.42 2099.63 999.822C2105.95 997.235 2111.65 993.288 2116.33 988.253C2121.01 983.218 2124.56 977.213 2126.75 970.649L2127.87 967.307L2129.02 970.649C2131.21 977.213 2134.76 983.218 2139.44 988.253C2144.12 993.288 2149.82 997.235 2156.14 999.822C2149.82 1002.41 2144.12 1006.36 2139.44 1011.4C2134.76 1016.44 2131.2 1022.45 2129.02 1029.02V1028.99ZM1930.6 797.538C1989.73 781.47 2052.59 787.919 2107.38 815.675C2162.17 843.43 2205.13 890.585 2228.19 948.289C2150.51 862.599 2044.6 808.949 1930.6 797.538ZM2293.3 941.299C2292.17 942.212 2290.85 942.842 2289.43 943.138C2288.02 943.434 2286.56 943.388 2285.17 943.003C2283.77 942.619 2282.49 941.907 2281.42 940.925C2280.35 939.943 2279.52 938.718 2278.99 937.349C2278.62 936.437 2278.25 935.5 2277.9 934.589C2268.23 910.601 2255.55 887.985 2240.18 867.304C2239.6 866.537 2239.23 865.63 2239.1 864.672C2238.98 863.714 2239.1 862.739 2239.46 861.843C2239.81 860.947 2240.39 860.162 2241.14 859.565C2241.89 858.969 2242.77 858.581 2243.71 858.441C2297.95 850.464 2334 854.186 2341.1 871.761C2347.49 887.588 2329.3 912.304 2293.3 941.274V941.299Z" fill="#131316"/>
<path d="M1882.28 899.009C1882.29 880.281 1878.08 861.802 1869.97 844.991C1861.86 828.181 1850.07 813.489 1835.51 802.045C1801.72 826.049 1773.23 856.966 1751.86 892.818C1730.48 928.671 1716.7 968.669 1711.38 1010.25C1729.72 1018.89 1749.91 1022.69 1770.07 1021.29C1790.24 1019.9 1809.74 1013.35 1826.76 1002.27C1843.79 991.187 1857.8 975.917 1867.5 957.87C1877.21 939.824 1882.29 919.581 1882.28 899.009V899.009Z" fill="#131316"/>
</g>
<g clip-path="url(#clip1_251_1288)">
<path d="M473.754 561.346L380.427 722.992L505.534 795.222L537.924 845.483L594.635 808.622L637.054 655.627L587.31 540.781L505.597 579.73L473.754 561.346Z" fill="#131316"/>
<path d="M682.584 620.018L698.497 632.175C706.503 638.292 712.328 646.79 715.094 656.392C717.861 665.994 717.42 676.179 713.838 685.416L709.214 697.289L717.202 687.358C723.404 679.634 732.001 674.156 741.697 671.749C751.394 669.342 761.665 670.137 770.963 674.014L789.466 681.727L773.535 669.559C765.527 663.443 759.702 654.941 756.94 645.337C754.178 635.732 754.628 625.545 758.222 616.311L762.817 604.445L754.857 614.369C748.651 622.094 740.05 627.574 730.349 629.982C720.647 632.39 710.372 631.596 701.069 627.721L682.584 620.018Z" fill="#131316"/>
<path d="M65.9878 676.438L81.9008 688.595C89.9143 694.71 95.7437 703.212 98.5092 712.819C101.275 722.426 100.827 732.617 97.2321 741.854L92.6181 753.709L100.596 743.796C106.806 736.059 115.418 730.574 125.132 728.17C134.846 725.767 145.133 726.576 154.439 730.475L172.924 738.178L157.011 726.02C148.999 719.908 143.17 711.41 140.403 701.807C137.636 692.203 138.08 682.015 141.669 672.78L146.276 660.896L138.305 670.838C132.101 678.564 123.501 684.042 113.8 686.447C104.1 688.853 93.8256 688.054 84.5268 684.172L65.9878 676.438Z" fill="#131316"/>
<path d="M675.61 734.055L677.525 736.222C681.294 740.475 684.106 745.469 685.772 750.864C687.438 756.259 687.918 761.929 687.179 767.487V767.487C691.614 764.068 696.754 761.646 702.249 760.386C707.745 759.126 713.468 759.057 719.029 760.184L721.863 760.76L719.948 758.593C716.191 754.341 713.389 749.35 711.732 743.961C710.076 738.571 709.604 732.909 710.348 727.359V727.359C705.909 730.777 700.766 733.197 695.267 734.455C689.768 735.713 684.043 735.78 678.48 734.652L675.61 734.055Z" fill="#131316"/>
<path d="M495.803 453.937C433.152 484.8 370.531 526.287 324.036 561.74C288.265 589.083 254.139 618.464 221.826 649.737C199.135 671.756 160.433 651.415 166.287 620.335C177.19 562.361 209.135 510.651 256.122 474.917C261.957 470.461 267.949 466.354 274.048 462.522L241.723 421.207C367.251 377.62 463.452 421.683 496.091 440.433C497.304 441.137 498.307 442.15 498.995 443.364C499.683 444.578 500.03 445.949 500.001 447.331C499.971 448.714 499.566 450.058 498.827 451.22C498.088 452.383 497.043 453.322 495.803 453.937Z" fill="#131316"/>
<path d="M694.01 469.353C713.449 494.223 692.7 545.577 644.303 606.26C660.021 661.731 655.566 720.625 631.723 772.563C607.879 824.502 566.178 866.153 513.967 890.176C510.691 865.814 498.444 843.381 479.59 827.208C460.736 811.036 436.611 802.27 411.873 802.605C387.135 802.939 363.539 812.349 345.639 829.019C327.739 845.688 316.806 868.434 314.949 892.866C305.237 888.801 295.787 884.132 286.655 878.888C214.945 909.777 159.343 916.589 139.911 891.747C104.817 846.877 200.392 715.946 353.382 599.283C506.373 482.62 658.905 424.501 694.01 469.353ZM201.843 816.345C183.039 843.39 175.912 864.001 183.882 874.211C192.843 885.655 219.415 882.258 256.903 867.226C257.627 866.937 258.26 866.465 258.739 865.856C259.218 865.247 259.526 864.522 259.633 863.753C259.74 862.984 259.643 862.197 259.35 861.471C259.057 860.745 258.58 860.104 257.964 859.612C241.729 846.982 227.117 832.417 214.465 816.255V816.255C213.722 815.268 212.756 814.466 211.646 813.917C210.536 813.367 209.314 813.085 208.081 813.094C206.848 813.103 205.64 813.402 204.555 813.967C203.47 814.533 202.541 815.348 201.843 816.345V816.345ZM487.407 679.042C481.686 686.166 473.756 691.219 464.812 693.439C455.868 695.659 446.394 694.928 437.817 691.354L420.758 684.215L435.441 695.427C442.825 701.068 448.196 708.906 450.745 717.762C453.294 726.618 452.883 736.012 449.574 744.528L445.314 755.48L452.687 746.325C458.401 739.198 466.327 734.142 475.269 731.92C484.211 729.697 493.684 730.428 502.258 734.004L519.31 741.114L504.626 729.902C497.243 724.264 491.873 716.426 489.327 707.571C486.78 698.716 487.196 689.324 490.511 680.811L494.743 669.867L487.407 679.042ZM472.959 588.44L470.097 587.872L472.03 590.049C475.787 594.302 478.589 599.292 480.246 604.682C481.902 610.071 482.374 615.733 481.63 621.283C486.06 617.855 491.2 615.428 496.697 614.168C502.194 612.907 507.919 612.843 513.48 613.98L516.314 614.556L514.409 612.372C510.644 608.124 507.837 603.134 506.18 597.743C504.523 592.352 504.055 586.688 504.809 581.137C500.376 584.566 495.233 586.993 489.733 588.251C484.232 589.51 478.504 589.571 472.941 588.43L472.959 588.44ZM555.997 824.357C591.67 788.933 612.875 741.624 615.633 691.309C618.391 640.993 602.512 591.131 570.977 551.079C599.987 641.42 594.656 738.676 555.997 824.357ZM602.652 507.683C601.54 508.112 600.549 508.795 599.76 509.677C598.97 510.56 598.403 511.617 598.105 512.764C597.807 513.91 597.786 515.115 598.044 516.279C598.302 517.444 598.832 518.536 599.59 519.468C600.085 520.108 600.597 520.757 601.102 521.378C614.176 538.091 625.042 556.374 633.43 575.776C633.738 576.501 634.23 577.137 634.859 577.621C635.487 578.104 636.229 578.418 637.012 578.532C637.795 578.645 638.591 578.555 639.321 578.269C640.052 577.983 640.691 577.511 641.176 576.901C669.093 541.635 681.237 514.493 671.661 502.247C663.04 491.212 638.02 493.996 602.67 507.694L602.652 507.683Z" fill="#131316"/>
<path d="M464.088 817.067C477.397 824.742 488.797 835.314 497.413 847.971C506.029 860.627 511.631 875.031 513.786 890.073C482.874 904.232 449.222 911.794 414.984 912.275C380.745 912.756 346.674 906.146 314.949 892.867C316.339 876.29 321.923 860.391 331.186 846.635C340.45 832.88 353.094 821.711 367.954 814.159C382.813 806.607 399.408 802.914 416.21 803.423C433.011 803.931 449.477 808.624 464.088 817.067V817.067Z" fill="#131316"/>
</g>
<g clip-path="url(#clip2_251_1288)">
<path d="M898.625 218.768L870.726 170.446L908.125 148.853L917.808 133.828L934.761 144.848L947.442 190.584L932.571 224.916L908.144 213.272L898.625 218.768Z" fill="#131316"/>
<path d="M961.052 201.229L965.809 197.594C968.202 195.766 969.944 193.226 970.771 190.355C971.598 187.485 971.466 184.44 970.395 181.679L969.013 178.129L971.401 181.098C973.255 183.407 975.825 185.045 978.723 185.764C981.622 186.484 984.693 186.246 987.472 185.087L993.003 182.782L988.241 186.419C985.847 188.247 984.106 190.789 983.28 193.66C982.454 196.531 982.589 199.577 983.663 202.337L985.037 205.884L982.657 202.918C980.802 200.608 978.231 198.97 975.331 198.25C972.431 197.53 969.359 197.768 966.578 198.926L961.052 201.229Z" fill="#131316"/>
<path d="M776.727 184.363L781.484 180.729C783.879 178.901 785.622 176.359 786.449 173.487C787.275 170.615 787.141 167.569 786.067 164.808L784.688 161.264L787.073 164.227C788.929 166.54 791.503 168.18 794.407 168.898C797.311 169.617 800.387 169.375 803.168 168.209L808.694 165.907L803.937 169.541C801.542 171.368 799.8 173.909 798.973 176.779C798.145 179.65 798.278 182.696 799.351 185.457L800.728 189.009L798.345 186.037C796.491 183.728 793.92 182.09 791.02 181.371C788.12 180.652 785.049 180.891 782.269 182.051L776.727 184.363Z" fill="#131316"/>
<path d="M958.967 167.139L959.54 166.492C960.667 165.22 961.507 163.727 962.005 162.115C962.503 160.502 962.647 158.807 962.426 157.145V157.145C963.752 158.167 965.288 158.891 966.931 159.268C968.574 159.645 970.285 159.665 971.947 159.328L972.795 159.156L972.222 159.804C971.099 161.075 970.261 162.567 969.766 164.178C969.271 165.789 969.13 167.482 969.352 169.141V169.141C968.025 168.119 966.487 167.396 964.844 167.02C963.2 166.644 961.489 166.624 959.825 166.961L958.967 167.139Z" fill="#131316"/>
<path d="M905.216 250.877C886.487 241.651 867.767 229.249 853.868 218.65C843.174 210.476 832.972 201.693 823.313 192.344C816.53 185.762 804.96 191.843 806.71 201.134C809.969 218.465 819.519 233.923 833.565 244.605C835.31 245.937 837.101 247.165 838.924 248.311L829.261 260.661C866.786 273.691 895.545 260.519 905.302 254.914C905.664 254.703 905.964 254.401 906.17 254.038C906.375 253.675 906.479 253.265 906.471 252.852C906.462 252.438 906.34 252.037 906.12 251.689C905.899 251.342 905.586 251.061 905.216 250.877Z" fill="#131316"/>
<path d="M910.619 120.484C911.193 116.35 910.885 112.156 909.713 108.174C908.542 104.192 906.534 100.513 903.82 97.3746C901.106 94.2364 897.747 91.7101 893.961 89.9602C890.176 88.2103 886.049 87.2759 881.849 87.218C877.649 87.1602 873.471 87.98 869.586 89.6242C865.701 91.2684 862.196 93.7001 859.3 96.7609C856.404 99.8218 854.182 103.443 852.778 107.389C851.374 111.336 850.82 115.518 851.151 119.664C860.637 115.686 870.827 113.704 881.068 113.845C891.308 113.986 901.374 116.247 910.619 120.484Z" fill="#131316"/>
<path d="M964.468 246.269C970.279 238.834 964.076 223.482 949.608 205.342C954.307 188.759 952.975 171.154 945.848 155.627C938.72 140.1 926.254 127.649 910.646 120.468C909.666 127.751 906.005 134.457 900.369 139.292C894.733 144.126 887.521 146.746 880.126 146.646C872.731 146.546 865.677 143.733 860.326 138.75C854.975 133.767 851.706 126.967 851.151 119.664C848.248 120.879 845.423 122.275 842.693 123.842C821.256 114.608 804.634 112.572 798.825 119.998C788.334 133.412 816.905 172.552 862.64 207.428C908.375 242.303 953.974 259.677 964.468 246.269ZM817.339 142.539C811.718 134.454 809.588 128.293 811.97 125.24C814.649 121.819 822.592 122.835 833.799 127.329C834.015 127.415 834.205 127.556 834.348 127.738C834.491 127.92 834.583 128.137 834.615 128.367C834.647 128.597 834.618 128.832 834.53 129.049C834.443 129.266 834.3 129.457 834.116 129.605C829.263 133.38 824.895 137.734 821.112 142.566V142.566C820.89 142.861 820.602 143.101 820.27 143.265C819.938 143.429 819.573 143.513 819.204 143.511C818.836 143.508 818.474 143.419 818.15 143.25C817.826 143.081 817.548 142.837 817.339 142.539V142.539ZM902.706 183.584C900.995 181.455 898.625 179.944 895.951 179.28C893.277 178.617 890.445 178.835 887.881 179.904L882.782 182.038L887.171 178.686C889.378 177 890.984 174.657 891.746 172.009C892.508 169.362 892.385 166.554 891.396 164.008L890.123 160.734L892.327 163.471C894.035 165.601 896.404 167.113 899.077 167.777C901.75 168.442 904.582 168.223 907.145 167.154L912.243 165.028L907.853 168.38C905.646 170.066 904.041 172.409 903.28 175.056C902.519 177.703 902.643 180.511 903.634 183.055L904.899 186.327L902.706 183.584ZM898.387 210.669L897.531 210.839L898.109 210.188C899.232 208.917 900.07 207.425 900.565 205.814C901.06 204.203 901.201 202.51 900.979 200.851C902.303 201.875 903.84 202.601 905.483 202.978C907.126 203.355 908.838 203.374 910.5 203.034L911.347 202.862L910.778 203.515C909.652 204.785 908.813 206.276 908.318 207.888C907.822 209.499 907.683 211.193 907.908 212.852C906.583 211.827 905.045 211.102 903.401 210.725C901.757 210.349 900.044 210.331 898.381 210.672L898.387 210.669ZM923.21 140.144C933.874 150.733 940.213 164.876 941.038 179.917C941.862 194.959 937.115 209.864 927.688 221.837C936.361 194.831 934.767 165.757 923.21 140.144ZM937.157 234.81C936.825 234.682 936.529 234.478 936.293 234.214C936.056 233.95 935.887 233.634 935.798 233.292C935.709 232.949 935.703 232.589 935.78 232.241C935.857 231.892 936.015 231.566 936.242 231.287C936.39 231.096 936.543 230.902 936.694 230.716C940.602 225.72 943.85 220.255 946.358 214.455C946.45 214.238 946.597 214.048 946.785 213.903C946.973 213.759 947.195 213.665 947.429 213.631C947.663 213.597 947.901 213.624 948.119 213.709C948.337 213.795 948.529 213.936 948.674 214.118C957.019 224.661 960.649 232.775 957.787 236.436C955.209 239.734 947.73 238.902 937.163 234.807L937.157 234.81Z" fill="#131316"/>
<path d="M895.735 142.324C899.714 140.03 903.122 136.869 905.697 133.086C908.273 129.302 909.948 124.996 910.592 120.5C901.351 116.267 891.291 114.006 881.056 113.863C870.821 113.719 860.635 115.695 851.151 119.664C851.567 124.62 853.236 129.373 856.005 133.485C858.775 137.597 862.555 140.936 866.997 143.193C871.439 145.451 876.4 146.555 881.422 146.403C886.445 146.251 891.367 144.848 895.735 142.324V142.324Z" fill="#131316"/>
</g>
<g clip-path="url(#clip3_251_1288)">
<path d="M1937.35 190.644H2044.02V108.089L2059.64 77.6982L2025.19 60.1641L1937.35 82.8861L1894.73 140.32L1937.35 169.631V190.644Z" fill="#131316"/>
<path d="M1906.72 70.5285L1908.19 59.1794C1908.93 53.4695 1911.47 48.1585 1915.43 44.0456C1919.39 39.9328 1924.56 37.2406 1930.15 36.3742L1937.35 35.2702L1930.15 34.1543C1924.56 33.2922 1919.39 30.6029 1915.43 26.4917C1911.47 22.3805 1908.93 17.0702 1908.19 11.361L1906.72 0L1905.25 11.361C1904.51 17.0719 1901.97 22.3835 1898 26.4949C1894.04 30.6063 1888.87 33.2946 1883.27 34.1543L1876.09 35.2702L1883.27 36.3742C1888.87 37.2382 1894.04 39.9294 1898 44.0424C1901.97 48.1555 1904.51 53.4678 1905.25 59.1794L1906.72 70.5285Z" fill="#131316"/>
<path d="M2110.82 359.564L2112.29 348.215C2113.03 342.502 2115.57 337.188 2119.54 333.074C2123.5 328.96 2128.67 326.27 2134.27 325.41L2141.46 324.306L2134.27 323.19C2128.67 322.328 2123.49 319.633 2119.53 315.512C2115.56 311.391 2113.02 306.069 2112.29 300.349L2110.82 289L2109.35 300.349C2108.62 306.06 2106.08 311.373 2102.12 315.487C2098.15 319.601 2092.98 322.292 2087.39 323.154L2080.19 324.27L2087.39 325.374C2092.98 326.237 2098.15 328.928 2102.12 333.041C2106.08 337.155 2108.62 342.468 2109.35 348.179L2110.82 359.564Z" fill="#131316"/>
<path d="M1965.15 41.3966L1965.68 39.8296C1966.7 36.7492 1968.37 33.9303 1970.57 31.5643C1972.76 29.1983 1975.43 27.3408 1978.39 26.118V26.118C1975.43 24.9003 1972.76 23.0487 1970.57 20.689C1968.38 18.3292 1966.71 15.5165 1965.68 12.442L1965.15 10.875L1964.63 12.442C1963.59 15.5165 1961.92 18.3292 1959.73 20.689C1957.54 23.0487 1954.87 24.9003 1951.91 26.118V26.118C1954.87 27.3383 1957.54 29.1921 1959.73 31.5539C1961.93 33.9156 1963.59 36.7299 1964.63 39.8058L1965.15 41.3966Z" fill="#131316"/>
<path d="M1877.9 210.421C1911.07 232.609 1949.5 251.746 1980.33 264.627C2004.08 274.517 2028.37 283.011 2053.08 290.067C2070.46 295.006 2071.45 319.971 2054.4 325.955C2022.59 337.124 1987.87 336.09 1956.76 323.046C1952.89 321.432 1949.15 319.639 1945.51 317.716L1934.3 345.519C1876.86 295.849 1871.18 235.648 1871.13 214.137C1871.13 213.336 1871.35 212.55 1871.75 211.863C1872.15 211.175 1872.73 210.612 1873.43 210.231C1874.12 209.851 1874.9 209.668 1875.69 209.701C1876.47 209.735 1877.24 209.983 1877.9 210.421Z" fill="#131316"/>
<path d="M1828.89 107.925C1835.64 91.1976 1866.99 86.7933 1910.85 93.4057C1933.81 69.7769 1964.23 55.1539 1996.75 52.1135C2029.27 49.0731 2061.79 57.8103 2088.6 76.7856C2077.48 85.3677 2069.88 97.8387 2067.26 111.791C2064.64 125.743 2067.2 140.187 2074.43 152.334C2081.67 164.482 2093.07 173.471 2106.43 177.566C2119.8 181.662 2134.18 180.574 2146.8 174.512C2147.56 180.48 2147.95 186.491 2147.97 192.509C2183.74 219.172 2203 244.743 2196.26 261.458C2184.08 291.648 2091.97 281.759 1990.52 239.377C1889.07 196.996 1816.72 138.114 1828.89 107.925ZM2141.25 252.353C2160 253.932 2172.24 251.57 2175.02 244.708C2178.12 237.003 2168.85 224.823 2150.7 210.565C2150.35 210.289 2149.93 210.111 2149.49 210.048C2149.05 209.985 2148.61 210.04 2148.2 210.207C2147.79 210.373 2147.42 210.646 2147.15 210.999C2146.87 211.351 2146.69 211.77 2146.62 212.216C2145.01 223.859 2141.98 235.253 2137.6 246.132V246.132C2137.32 246.782 2137.2 247.489 2137.24 248.195C2137.29 248.902 2137.5 249.587 2137.85 250.195C2138.21 250.802 2138.71 251.315 2139.29 251.69C2139.88 252.065 2140.55 252.293 2141.25 252.353V252.353ZM1991.7 150.258C1996.86 151.054 2001.63 153.535 2005.28 157.327C2008.94 161.119 2011.28 166.017 2011.96 171.283L2013.3 181.765L2014.66 171.295C2015.34 166.029 2017.68 161.131 2021.34 157.339C2024.99 153.547 2029.76 151.066 2034.92 150.27L2041.56 149.249L2034.92 148.216C2029.76 147.425 2024.99 144.947 2021.34 141.156C2017.68 137.366 2015.34 132.469 2014.66 127.204L2013.3 116.733L2011.95 127.204C2011.27 132.469 2008.93 137.366 2005.27 141.156C2001.62 144.947 1996.85 147.425 1991.69 148.216L1985.06 149.249L1991.7 150.258ZM1950.99 183.297L1951.53 184.875L1952.05 183.297C1953.08 180.222 1954.75 177.409 1956.94 175.05C1959.14 172.69 1961.81 170.838 1964.77 169.621C1961.8 168.408 1959.13 166.558 1956.94 164.197C1954.74 161.837 1953.08 159.022 1952.05 155.945L1951.53 154.378L1950.99 155.945C1949.96 159.022 1948.29 161.837 1946.1 164.197C1943.91 166.558 1941.24 168.408 1938.27 169.621C1941.24 170.835 1943.91 172.687 1946.1 175.049C1948.3 177.412 1949.96 180.229 1950.99 183.308V183.297ZM2044.02 74.7912C2016.29 67.2585 1986.82 70.2817 1961.13 83.2935C1935.44 96.3054 1915.3 118.411 1904.49 145.462C1940.91 105.291 1990.57 80.1407 2044.02 74.7912ZM1873.96 142.186C1874.49 142.614 1875.11 142.909 1875.78 143.048C1876.44 143.186 1877.12 143.165 1877.78 142.985C1878.43 142.804 1879.03 142.47 1879.53 142.01C1880.04 141.55 1880.43 140.975 1880.67 140.334C1880.85 139.906 1881.02 139.467 1881.18 139.04C1885.72 127.794 1891.66 117.192 1898.87 107.497C1899.14 107.138 1899.31 106.712 1899.37 106.263C1899.43 105.814 1899.38 105.357 1899.21 104.937C1899.04 104.517 1898.77 104.149 1898.42 103.869C1898.07 103.59 1897.65 103.408 1897.21 103.342C1871.78 99.6026 1854.88 101.348 1851.56 109.587C1848.56 117.006 1857.08 128.593 1873.96 142.174V142.186Z" fill="#131316"/>
<path d="M2066.67 122.36C2066.67 113.581 2068.64 104.918 2072.44 97.0374C2076.25 89.1568 2081.77 82.2691 2088.6 76.9043C2104.44 88.1573 2117.8 102.651 2127.82 119.458C2137.84 136.266 2144.31 155.017 2146.8 174.512C2138.2 178.56 2128.73 180.34 2119.28 179.685C2109.82 179.031 2100.68 175.965 2092.7 170.769C2084.72 165.573 2078.15 158.415 2073.6 149.954C2069.05 141.494 2066.67 132.004 2066.67 122.36V122.36Z" fill="#131316"/>
</g>
<defs>
<clipPath id="clip0_251_1288">
<rect width="799" height="752.997" fill="white" transform="translate(1603 638)"/>
</clipPath>
<clipPath id="clip1_251_1288">
<rect width="655.528" height="617.709" fill="white" transform="matrix(0.5 -0.866025 -0.866025 -0.5 534.952 1122.56)"/>
</clipPath>
<clipPath id="clip2_251_1288">
<rect width="195.964" height="184.658" fill="white" transform="translate(916.919 51) rotate(60)"/>
</clipPath>
<clipPath id="clip3_251_1288">
<rect width="374.612" height="353" fill="white" transform="matrix(-1 0 0 1 2197.61 0)"/>
</clipPath>
</defs>
</svg>
