<svg width="69" height="16" viewBox="0 0 69 16" fill="none" xmlns="http://www.w3.org/2000/svg">
<path d="M19.8232 9.63823C19.4713 9.81466 19.1426 9.90412 18.8569 9.90412C18.6474 9.90412 18.4956 9.84177 18.4144 9.71342C18.3235 9.56987 18.2563 9.32662 18.2563 8.99072V5.76085H20.4927V3.75728H18.2563V0.854455L15.9021 1.81593V3.75728H14.9604V5.76085H15.9021V9.30175C15.9021 10.2008 16.1253 10.8965 16.5465 11.3691C16.9709 11.846 17.5712 12.0879 18.3116 12.0879C19.1127 12.0879 19.8406 11.9124 20.4764 11.5661L20.5608 11.5198L19.9494 9.57635L19.8232 9.63823Z" fill="currentColor"/>
<path d="M27.1933 8.0032C27.0678 7.83572 26.8605 7.67261 26.5597 7.50443C26.2715 7.34379 26.0193 7.22039 25.8099 7.13754C25.6029 7.05586 25.2778 6.93176 24.8434 6.76853C23.8856 6.40894 23.7426 6.14989 23.7426 6.02756C23.7426 5.87046 23.7981 5.76144 23.9175 5.68483C24.05 5.59938 24.2046 5.55613 24.377 5.55613C25.039 5.55613 25.6549 5.83121 26.2075 6.37371L26.3094 6.47377L27.4948 4.67527L27.4081 4.60832C26.5298 3.92947 25.5264 3.58521 24.426 3.58521C23.5634 3.58521 22.8401 3.8142 22.2762 4.26583C21.7043 4.72382 21.4144 5.33303 21.4144 6.07671C21.4144 6.81803 21.6449 7.40118 22.0992 7.80956C22.5395 8.20615 23.1669 8.54181 23.9637 8.80769C24.5104 8.99037 24.8856 9.13887 25.079 9.24859C25.2425 9.34158 25.322 9.44459 25.322 9.56363C25.322 9.72097 25.2553 9.84483 25.1182 9.9423C24.9704 10.0473 24.7539 10.1006 24.4751 10.1006C23.6914 10.1006 22.97 9.80264 22.3311 9.21489L22.2317 9.12343L21.0647 10.8111L21.1444 10.8803C22.0666 11.6816 23.1818 12.0879 24.4587 12.0879C25.4858 12.0879 26.2846 11.8469 26.8329 11.3716C27.386 10.892 27.6665 10.2562 27.6665 9.48183C27.6665 9.15254 27.6169 8.8599 27.5192 8.61169C27.4232 8.36856 27.3135 8.16372 27.1933 8.0032Z" fill="currentColor"/>
<path d="M34.102 9.35027C33.73 9.73331 33.2862 9.91952 32.7483 9.91952C32.1762 9.91952 31.7231 9.73449 31.3617 9.35145C31.0039 8.97195 30.8214 8.47106 30.8214 7.86056C30.8214 7.21824 31.0062 6.69731 31.3699 6.31309C31.7372 5.92416 32.188 5.73559 32.7483 5.73559C33.2957 5.73559 33.7406 5.93241 34.1078 6.33549C34.4727 6.73738 34.6575 7.25006 34.6575 7.86056C34.6575 8.46988 34.4704 8.97077 34.102 9.35027ZM34.6175 3.75677V4.47924C34.029 3.88524 33.245 3.5847 32.3175 3.5847C31.2099 3.5847 30.2447 3.99131 29.5113 4.79391C28.7804 5.59299 28.4072 6.61952 28.4072 7.84406C28.4072 9.09216 28.7733 10.1211 29.5043 10.9048C30.2376 11.6897 31.1781 12.0869 32.3187 12.0869C33.2756 12.0869 34.029 11.7687 34.6175 11.1382V11.8889H36.9717V3.75677H34.6175Z" fill="currentColor"/>
<path d="M43.5848 3.58458C42.5893 3.58458 41.798 3.91882 41.0917 4.57894V3.75653H38.7375V11.8887H41.0917V7.8114C41.0917 7.1342 41.2657 6.61197 41.5671 6.25911C41.8676 5.90683 42.29 5.73559 42.8147 5.73559C43.299 5.73559 43.6712 5.87289 43.8974 6.14349C44.1287 6.42057 44.2698 6.91569 44.2698 7.61494V11.8887H46.624V7.07468C46.624 4.75879 45.5832 3.58458 43.5848 3.58458Z" fill="currentColor"/>
<path d="M53.5663 9.08108C53.2108 9.44761 52.7647 9.62558 52.2032 9.62558C51.65 9.62558 51.1886 9.44761 50.8319 9.09522C50.4752 8.744 50.294 8.26786 50.294 7.68093C50.294 7.1164 50.4729 6.6485 50.8237 6.29022C51.1803 5.9284 51.6323 5.75279 52.2032 5.75279C52.747 5.75279 53.2025 5.93193 53.5604 6.28315C53.9159 6.63554 54.0971 7.0999 54.0971 7.66443C54.0971 8.24193 53.9182 8.71808 53.5663 9.08108ZM54.0394 3.75747V4.41393C53.3332 3.86354 52.614 3.5854 51.7088 3.5854C50.6106 3.5854 49.6784 3.9814 48.9615 4.76161C48.2458 5.53829 47.8833 6.54361 47.8833 7.74693C47.8833 8.93022 48.2564 9.91079 48.9945 10.6615C49.7337 11.4123 50.6789 11.793 51.8077 11.793C52.7058 11.793 53.4509 11.5278 54.0394 11.0045V11.5455L56.3936 10.8607V3.75747H54.0394Z" fill="currentColor"/>
<path d="M63.4327 9.35027C63.0608 9.73331 62.6182 9.91952 62.0791 9.91952C61.5082 9.91952 61.055 9.73449 60.6925 9.35145C60.3346 8.97195 60.1534 8.47106 60.1534 7.86056C60.1534 7.21824 60.337 6.69731 60.7007 6.31309C61.068 5.92416 61.5188 5.73559 62.0791 5.73559C62.6276 5.73559 63.0713 5.93241 63.4386 6.33549C63.8035 6.73738 63.9883 7.25006 63.9883 7.86056C63.9883 8.46988 63.8023 8.97077 63.4327 9.35027ZM63.9271 3.75677V4.47924C63.3385 3.88524 62.5676 3.5847 61.6412 3.5847C60.5324 3.5847 59.5825 3.99131 58.848 4.79391C58.117 5.59299 57.7498 6.61952 57.7498 7.84406C57.7498 9.09216 58.1276 10.1211 58.8597 10.9048C59.5931 11.6897 60.5571 12.0869 61.6977 12.0869C62.6547 12.0869 63.4563 11.7687 64.0448 11.1382V11.8889H66.2813V3.75677H63.9271Z" fill="currentColor"/>
<path d="M56.3936 9.17843V12.0365C56.3936 13.7125 55.0366 15.0713 53.3626 15.0713H49.0957V12.9499H52.7839C53.4773 12.9499 54.0395 12.387 54.0395 11.6927V10.1213" fill="currentColor"/>
<path d="M66.2812 1.17108H68.8647V3.75781H66.2812V1.17108Z" fill="currentColor"/>
<path d="M0.364502 7.41055H3.30721V13.1855H0.364502V7.41055Z" fill="currentColor"/>
<path d="M12.0176 4.46387H0.364502V1.51744H12.0176V4.46387Z" fill="currentColor"/>
<path d="M12.0177 7.41055C12.0177 10.6 9.43546 13.1855 6.25003 13.1855H6.13232V7.41055H12.0177Z" fill="currentColor"/>
</svg>
